<?xml version="1.0" standalone="no"?>
<!DOCTYPE svg PUBLIC "-//W3C//DTD SVG 20010904//EN"
 "http://www.w3.org/TR/2001/REC-SVG-20010904/DTD/svg10.dtd">
<svg version="1.0" xmlns="http://www.w3.org/2000/svg"
 width="397.000000pt" height="129.000000pt" viewBox="0 0 397.000000 129.000000"
 preserveAspectRatio="xMidYMid meet">

<g transform="translate(0.000000,129.000000) scale(0.100000,-0.100000)"
fill="#000000" stroke="none">
<path d="M1953 1283 c-7 -3 -13 -11 -13 -18 0 -15 19 -24 38 -18 6 3 12 11 12
18 0 15 -19 24 -37 18z"/>
<path d="M2013 1274 c-8 -20 9 -36 30 -28 21 8 22 30 1 38 -22 8 -24 8 -31
-10z"/>
<path d="M2177 1273 c-4 -3 -7 -58 -7 -120 0 -109 1 -115 25 -139 24 -24 31
-25 88 -20 34 3 71 5 82 4 11 -1 48 -2 82 -2 93 -1 98 6 98 157 0 119 -1 122
-22 125 -23 3 -23 2 -23 -103 0 -128 -7 -145 -58 -145 -54 0 -62 13 -62 103 0
76 -1 78 -22 75 -21 -3 -23 -9 -26 -78 -2 -41 -8 -80 -14 -87 -13 -16 -70 -17
-86 -1 -8 8 -12 50 -12 125 0 103 -2 113 -18 113 -10 0 -22 -3 -25 -7z"/>
<path d="M234 1221 c-86 -22 -134 -81 -134 -164 0 -86 38 -142 145 -215 85
-58 148 -88 285 -137 58 -20 115 -41 127 -45 20 -8 22 -17 25 -102 3 -90 2
-93 -24 -117 -16 -13 -28 -28 -28 -32 0 -4 12 -22 26 -39 24 -28 30 -52 25
-107 -1 -6 -25 -19 -55 -27 -29 -9 -64 -25 -77 -36 l-24 -19 203 -1 c111 0
202 2 202 6 0 7 -96 49 -132 58 -16 3 -28 13 -28 21 0 20 3 19 77 -10 48 -20
78 -25 120 -23 65 4 90 25 61 55 -16 16 -19 16 -36 0 -14 -13 -25 -15 -48 -8
-40 11 -154 70 -154 79 0 4 22 5 48 4 67 -5 123 12 157 48 25 26 30 40 30 80
0 43 -4 54 -39 89 -46 47 -104 74 -314 147 -242 84 -350 137 -431 210 -52 47
-77 98 -66 136 13 41 55 76 108 89 55 13 227 6 272 -11 14 -6 53 -10 86 -10
65 0 73 10 40 51 -17 21 -28 24 -98 25 -43 0 -132 3 -198 7 -66 3 -134 3 -151
-2z m632 -640 c93 -44 117 -91 68 -130 -21 -17 -41 -21 -95 -21 l-69 0 0 90
c0 106 1 106 96 61z"/>
<path d="M2098 1136 c-5 -99 -12 -106 -108 -106 -93 0 -110 13 -110 83 0 49
-8 61 -35 50 -15 -5 -17 -15 -11 -67 5 -49 11 -66 32 -84 25 -22 34 -24 131
-20 135 4 143 11 143 134 0 76 -2 84 -19 84 -16 0 -19 -9 -23 -74z"/>
<path d="M2585 1200 c-12 -20 7 -30 55 -30 42 0 52 -4 66 -25 11 -17 14 -35
10 -57 -10 -49 -23 -58 -83 -58 -46 0 -54 -3 -51 -17 3 -17 27 -18 318 -20
205 -2 324 1 341 8 34 13 49 47 49 110 0 40 -5 55 -25 75 -24 24 -28 25 -155
22 l-129 -2 -3 -86 c-3 -85 -3 -85 -31 -88 -47 -6 -57 12 -57 100 0 77 -1 79
-22 76 -21 -3 -23 -9 -26 -78 -3 -83 -13 -102 -51 -98 -24 3 -26 6 -23 48 4
51 -11 97 -36 116 -20 16 -138 19 -147 4z m643 -42 c18 -18 15 -94 -4 -112
-20 -21 -193 -23 -195 -3 -3 44 5 95 18 110 13 13 32 17 93 17 46 0 81 -5 88
-12z"/>
<path d="M280 1098 c1 -46 127 -214 146 -195 4 4 -4 20 -18 35 -33 36 -68 95
-68 116 0 14 25 16 253 15 138 -1 311 -4 382 -8 l130 -6 -3 -34 c-6 -82 -81
-179 -171 -223 -60 -29 -167 -35 -259 -14 -87 20 -91 20 -66 1 35 -27 144 -55
213 -55 128 0 239 45 307 123 44 52 92 149 100 203 l6 41 -143 6 c-79 4 -294
7 -476 7 -260 0 -333 -3 -333 -12z"/>
<path d="M3412 1048 c-19 -19 -14 -36 16 -50 l27 -13 0 -315 c0 -282 -2 -318
-18 -347 -32 -60 -103 -80 -151 -42 -51 40 -56 64 -56 249 0 161 1 172 19 177
27 7 33 29 15 48 -20 19 -172 21 -198 2 -22 -16 -12 -45 20 -53 l24 -6 -1
-222 c0 -280 -4 -302 -57 -360 -23 -25 -42 -50 -42 -56 0 -20 31 -22 71 -5 43
20 129 105 129 129 0 25 16 27 75 11 124 -32 242 33 274 150 7 25 11 155 11
341 l0 301 25 11 c28 13 34 47 9 56 -29 11 -179 7 -192 -6z"/>
<path d="M3658 1049 c-26 -14 -22 -38 7 -49 l25 -10 0 -368 0 -369 -25 -11
c-30 -14 -32 -37 -6 -52 21 -11 159 -14 185 -4 26 10 20 53 -7 59 -24 6 -24 7
-30 223 -9 269 -8 435 1 487 6 31 12 41 30 43 31 5 31 47 0 56 -37 9 -161 6
-180 -5z"/>
<path d="M2305 950 c-9 -15 4 -30 26 -30 12 0 19 7 19 20 0 21 -33 29 -45 10z"/>
<path d="M2370 940 c0 -16 5 -21 23 -18 12 2 22 10 22 18 0 8 -10 16 -22 18
-18 3 -23 -2 -23 -18z"/>
<path d="M2815 950 c-9 -15 4 -30 26 -30 12 0 19 7 19 20 0 21 -33 29 -45 10z"/>
<path d="M2887 954 c-16 -16 -6 -35 16 -32 12 2 22 10 22 18 0 16 -26 25 -38
14z"/>
<path d="M1985 839 c-43 -45 -81 -58 -203 -70 -141 -13 -175 -23 -222 -66 -45
-40 -66 -94 -56 -146 10 -52 57 -111 110 -135 41 -20 62 -22 216 -22 180 0
217 -7 254 -48 23 -26 16 -46 -26 -72 -31 -19 -51 -20 -346 -20 -287 0 -316 2
-350 19 -46 23 -67 46 -87 94 -17 40 -20 142 -6 180 15 38 0 49 -60 45 l-54
-3 -13 -56 c-26 -107 20 -223 116 -296 71 -54 90 -57 435 -60 266 -3 327 -1
372 12 123 35 152 153 61 241 -56 54 -101 64 -278 64 -79 0 -160 5 -181 11
-69 19 -96 69 -63 114 12 17 32 20 137 25 98 5 132 11 164 27 64 34 139 126
133 165 -5 33 -21 32 -53 -3z"/>
<path d="M2194 734 c-4 -14 -3 -29 2 -34 5 -4 41 -10 80 -12 59 -3 77 -8 108
-31 73 -56 102 -165 72 -269 -28 -96 -109 -145 -200 -120 -49 13 -68 1 -64
-37 8 -71 163 -63 279 14 l51 35 39 -34 c110 -100 287 -69 350 60 21 44 23 66
27 222 5 173 5 173 29 183 16 6 23 15 21 27 -3 15 -18 17 -111 20 l-107 3 0
-25 c0 -17 7 -26 25 -30 l25 -6 0 -171 c0 -184 -5 -208 -56 -248 -31 -25 -64
-27 -103 -7 -50 26 -63 59 -70 180 -8 130 -30 186 -93 240 -55 48 -115 66
-215 66 -80 0 -83 -1 -89 -26z"/>
<path d="M505 585 c-14 -13 -25 -36 -25 -50 0 -29 40 -75 65 -75 31 0 74 31
75 53 0 4 -16 7 -35 7 -28 0 -35 4 -35 20 0 24 15 27 24 5 5 -13 9 -12 27 6
l22 22 -23 19 c-31 25 -66 23 -95 -7z m21 -31 c-3 -9 -6 -21 -7 -27 0 -7 -4
-3 -8 8 -9 22 -5 35 11 35 5 0 7 -7 4 -16z"/>
<path d="M2605 145 c-50 -49 -20 -129 49 -129 75 0 108 83 52 131 -35 30 -71
29 -101 -2z"/>
<path d="M2783 144 c-21 -21 -24 -32 -20 -62 8 -44 23 -60 64 -68 27 -5 37 -1
63 24 38 38 38 66 1 103 -37 36 -73 38 -108 3z"/>
</g>
</svg>
